<svg width="421" height="242" viewBox="0 0 421 242" fill="none" xmlns="http://www.w3.org/2000/svg">
<path fill-rule="evenodd" clip-rule="evenodd" d="M407.519 95.0904C407.59 89.0004 406.05 85.8869 403.284 80.2672C392.423 58.2676 371.035 27.3638 368.745 24.507C338.228 -15.5833 132.676 2.26786 77.9647 16.8088C73.7196 17.955 27.7418 25.0715 25.2798 33.3513C19.7378 44.0261 13.76 57.9768 11.3082 71.671L143.527 78.2058C200.346 81.0114 243.264 98.221 278.664 116.064C312.565 133.171 340.052 161.209 350.599 191.873C359.019 159.686 389.545 114.105 407.519 95.1161V95.0904ZM57.833 171.328C57.5015 176.504 56.4021 181.625 54.5605 186.57C52.6658 191.018 35.4419 190.146 31.6324 190.428C29.8143 190.518 27.9899 190.441 26.1917 190.197C16.8097 188.486 13.5473 180.018 12.0984 164.536C11.8255 161.627 11.8255 158.704 12.0984 155.795C11.0853 156.847 9.50473 157.505 6.85022 157.206C-1.25515 156.83 -3.62598 144.427 7.86339 144.923C5.56349 118.407 7.86339 100.513 10.5888 76.4951L120.69 82.6793C192.453 86.7251 310.923 106.775 346.81 202.711L352.149 202.403C364.48 165.477 388.319 123.36 406.861 101.916C407.114 131.109 407.62 165.306 409.789 189.615C424.692 194.602 423.355 210.948 413.841 215.9C404.905 220.536 397.722 220.006 373.76 226.019C319.606 234.752 217.185 230.013 186.759 223.145C186.483 226.902 185.673 230.618 184.348 234.213C181.085 242.04 151.055 240.56 145.503 241.826C143.689 242.245 139.424 241.826 137.458 241.432C123.699 238.481 119.707 223.521 119.12 196.278C119.12 194.722 119.12 193.182 119.12 191.668C98.5017 185.082 78.1978 178.573 57.7925 171.328H57.833ZM13.4764 148.601C15.2089 143.298 18.2889 139.671 22.372 138.833C20.6192 138.286 18.9272 137.764 17.4987 137.362C15.0164 136.66 14.3072 137.174 13.9323 138.542C13.2737 140.92 13.3953 145.385 13.4764 148.601ZM138.34 169.352C144.094 172.936 146.273 182.952 145.999 199.717C145.726 216.482 141.855 230.082 137.357 230.082C132.858 230.082 130.406 219.27 129.697 199.717C128.988 180.164 132.585 165.768 138.34 169.352ZM23.9728 147.113C28.0255 149.26 29.8492 155.239 30.3153 165.246C30.7813 175.254 28.6942 183.38 25.6547 183.38C22.6152 183.38 18.1572 177.632 17.6304 165.246C17.1035 152.861 19.9607 144.974 23.9728 147.113ZM324.084 20.8119L359.201 24.0536C362.889 24.3958 364.206 26.8677 365.969 29.5792L391.167 68.3009C396.526 76.5465 390.508 76.7004 386.79 76.632L343.223 75.8536C339.505 75.7852 337.742 73.2363 336.455 70.3281L317.296 26.7052C316.02 23.797 315.27 19.9993 324.064 20.8119H324.084ZM225.959 18.7419L306.871 20.3158C310.589 20.3842 312.372 22.8818 313.639 25.8413L332.656 69.7037C333.922 72.6204 329.616 75.6227 325.888 75.597L233.851 74.9298C230.133 74.9298 227.63 72.5007 227.093 69.4043L219.201 24.6438C218.654 21.556 222.24 18.6564 225.959 18.7505V18.7419ZM144.327 24.6353L206.617 21.2139C208.198 21.1283 209.272 22.3173 209.495 23.6345L216.678 67.0863C217.337 71.0893 212.696 74.0317 211.126 74.0317L131.663 74.1258C130.082 74.1258 128.421 72.9968 128.785 71.6966L141.46 27.0645C141.835 25.7643 142.757 24.7208 144.338 24.6353H144.327ZM108.279 27.9369L130.285 25.9782C131.855 25.8328 133.517 27.1072 133.162 28.3988L121.47 70.9012C121.116 72.2013 120.173 73.356 118.593 73.3303L96.8705 72.9112C95.29 72.9112 93.6284 71.7822 93.9931 70.482L105.401 30.3661C105.5 29.7527 105.834 29.1834 106.352 28.7449C106.869 28.3063 107.542 28.0226 108.269 27.9369H108.279ZM78.2788 31.2044L94.8037 29.3568C95.1913 29.3215 95.5834 29.3601 95.951 29.4698C96.3186 29.5795 96.6524 29.7575 96.9276 29.9907C97.2028 30.2239 97.4125 30.5062 97.5411 30.817C97.6698 31.1277 97.7141 31.4589 97.6709 31.786L86.83 70.2767C86.4652 71.5769 85.5331 72.7573 83.9526 72.7059L67.7418 72.1671C66.1613 72.1157 64.4896 71.038 64.8644 69.7464L75.4014 33.6336C75.5103 33.0221 75.8485 32.4562 76.3664 32.019C76.8843 31.5818 77.5546 31.2963 78.2788 31.2044ZM52.6354 33.4625L66.2018 32.0939C67.7722 31.94 69.444 33.223 69.0792 34.5231L59.2515 68.874C58.8766 70.1741 57.9546 71.3032 56.3741 71.3032H42.9495C41.3791 71.3032 39.6972 70.1741 40.0823 68.874L49.7986 35.9173C49.893 35.3041 50.2206 34.7332 50.7321 34.2905C51.2437 33.8479 51.9116 33.5573 52.6354 33.4625Z" fill="#C1C3C7"/>
<path d="M45.8474 103.883C44.9085 100.2 43.9527 96.6042 42.9801 93.0973C40.5958 93.3139 38.2317 93.5449 35.8879 93.7901C34.537 98.7796 33.1861 103.561 31.8352 108.134C33.6387 108.203 35.4421 108.288 37.2354 108.374C37.6913 106.424 38.1574 104.456 38.6235 102.455C39.1099 100.4 39.3912 98.314 39.4644 96.2193C40.5586 99.7006 41.6528 103.302 42.7369 106.997L47.9953 107.236C49.9676 103.507 51.9636 99.5723 53.9831 95.4324C53.5885 97.7479 53.3618 100.082 53.3043 102.421C53.1962 104.73 53.0848 107.031 52.97 109.323C54.7835 109.452 56.5971 109.597 58.4006 109.742C58.4951 103.823 58.5863 97.8787 58.6741 91.9083C56.2729 92.0623 53.8616 92.2248 51.4603 92.4044C49.5421 96.4189 47.6711 100.245 45.8474 103.883Z" fill="white" stroke="white" stroke-width="0.5" stroke-miterlimit="388.69"/>
<path d="M62.6251 110.11C67.8463 110.572 73.0608 111.097 78.2685 111.684L78.6636 108.502C75.2864 108.194 71.9092 107.909 68.5319 107.647C68.7548 105.893 68.9676 104.131 69.1905 102.352C71.9463 102.455 74.7021 102.583 77.4478 102.72C77.5795 101.676 77.7113 100.633 77.8328 99.5894C75.077 99.5039 72.3212 99.444 69.5653 99.3927C69.7781 97.682 69.9807 96.0226 70.1935 94.329C73.3647 94.2691 76.5461 94.2349 79.7173 94.2263C80.0517 93.1486 80.3759 92.0709 80.7305 90.976C75.4823 91.0958 70.2307 91.2868 64.9757 91.5491C64.1787 97.8616 63.3951 104.049 62.6251 110.11Z" fill="white" stroke="white" stroke-width="0.5" stroke-miterlimit="388.69"/>
<path d="M92.0072 90.8565C89.7174 90.8565 87.4209 90.8736 85.1176 90.9079C84.2328 98.1156 83.3682 105.204 82.5239 112.172C85.0062 112.471 87.4986 112.779 89.9809 113.096C96.374 113.951 103.041 112.6 104.165 102.917C105.371 92.9607 98.988 90.7967 92.0072 90.8565ZM98.4003 102.464C97.6202 108.964 94.5401 110.162 90.7306 109.708L88.4712 109.478C89.0656 104.494 89.6735 99.45 90.295 94.3464H92.4631C96.2625 94.4405 99.2413 95.7919 98.4003 102.464Z" fill="white" stroke="white" stroke-width="0.5" stroke-miterlimit="388.69"/>
<path d="M106.972 115.465C112.173 116.252 117.367 117.085 122.554 117.963C122.706 116.62 122.868 115.277 123.03 113.934C119.653 113.421 116.276 112.931 112.899 112.463C113.172 110.188 113.446 107.895 113.709 105.62C116.458 105.911 119.201 106.219 121.936 106.544C122.098 105.218 122.25 103.901 122.412 102.575C119.663 102.29 116.914 102.028 114.165 101.788C114.422 99.6156 114.682 97.4345 114.945 95.2448C118.106 95.433 121.268 95.6382 124.429 95.8777C124.783 94.5348 125.148 93.1919 125.513 91.8405C120.285 91.5326 115.053 91.2959 109.819 91.1306C108.846 99.3704 107.897 107.482 106.972 115.465Z" fill="white" stroke="white" stroke-width="0.5" stroke-miterlimit="388.69"/>
<path d="M135.513 92.5072C133.649 92.3618 131.794 92.2335 129.93 92.1052C128.877 101.086 127.83 109.954 126.789 118.707C131.855 119.585 136.921 120.5 141.987 121.452C142.372 119.901 142.76 118.35 143.152 116.799C139.721 116.229 136.293 115.659 132.868 115.088C133.726 107.636 134.608 100.108 135.513 92.5072Z" fill="white" stroke="white" stroke-width="0.5" stroke-miterlimit="388.69"/>
<path d="M154.804 94.2692C152.946 94.0754 151.092 93.8872 149.241 93.7047C148.1 103.29 146.972 112.785 145.857 122.188C150.917 123.146 155.982 124.132 161.055 125.147C161.447 123.505 161.845 121.863 162.251 120.221C158.84 119.582 155.418 118.957 151.987 118.347C152.906 110.387 153.845 102.361 154.804 94.2692Z" fill="white" stroke="white" stroke-width="0.5" stroke-miterlimit="388.69"/>
<path d="M164.885 125.925L170.376 127.046C171.592 116.97 172.818 106.822 174.054 96.6038L168.502 95.8767L164.885 125.925Z" fill="white" stroke="white" stroke-width="0.5" stroke-miterlimit="388.69"/>
<path d="M194.277 99.5979C193.699 104.242 193.122 108.887 192.544 113.506C191.967 118.125 191.906 122.675 191.906 124.874C190.15 115.966 188.377 107.142 186.587 98.4004C184.257 98.0498 181.936 97.7076 179.606 97.374C178.343 107.707 177.093 117.971 175.857 128.167L180.822 129.193C181.308 125.201 181.798 121.187 182.291 117.15C182.99 111.41 183.041 107.279 183.081 104.439C184.831 113.118 186.56 121.886 188.269 130.741L195.31 132.212C196.661 121.657 197.985 111.06 199.282 100.419L194.277 99.5979Z" fill="white" stroke="white" stroke-width="0.5" stroke-miterlimit="388.69"/>
<path d="M190.68 141.767C191.784 133.445 109.302 118.784 6.28284 108.99" stroke="white" stroke-width="2" stroke-miterlimit="388.69"/>
<path d="M76.1918 120.512C75.8371 121.47 75.4724 122.436 75.1077 123.394C77.053 123.463 78.9881 123.574 80.9233 123.711C79.2515 128.603 77.4785 133.487 75.6548 138.346C77.286 138.525 78.9172 138.705 80.5585 138.902C82.3316 133.975 84.0236 129.048 85.5636 124.113C87.4076 124.29 89.2549 124.495 91.1056 124.729C91.5514 123.762 91.9871 122.796 92.4025 121.829C87.0339 121.124 81.6211 120.684 76.1918 120.512Z" fill="white" stroke="white" stroke-width="0.5" stroke-miterlimit="388.69"/>
<path d="M118.785 126.157C115.592 131.804 111.925 137.253 107.813 142.459C106.577 139.643 105.287 136.826 103.942 134.009C107.326 133.444 109.191 132.298 109.647 129.929C110.336 126.362 107.418 124.087 101.541 123.137C99.2515 122.778 96.982 122.436 94.7327 122.128C93.2839 128.115 91.5108 134.051 89.4845 140.03C91.1461 140.244 92.8077 140.475 94.4794 140.706C95.2494 138.357 95.9722 136.01 96.6476 133.666L99.1603 134.026C100.173 136.592 101.187 139.158 102.109 141.784L107.772 142.639L112.99 143.409C113.861 142.154 114.699 140.903 115.503 139.654L123.051 140.843C123.152 142.22 123.213 143.589 123.243 144.949L128.674 145.804C128.09 139.567 126.787 133.394 124.783 127.371L118.785 126.157ZM99.9708 131.348L97.4075 130.981C97.9073 129.15 98.3633 127.323 98.7753 125.498L100.913 125.823C103.78 126.268 104.966 127.286 104.591 129.107C104.155 131.118 102.534 131.716 99.9708 131.348ZM117.195 136.994C118.765 134.428 120.234 131.913 121.44 129.424C122.041 132.275 122.5 135.103 122.818 137.909L117.195 136.994Z" fill="white" stroke="white" stroke-width="0.5" stroke-miterlimit="388.69"/>
<path d="M146.06 131.554C144.119 135.947 141.708 140.182 138.856 144.205C138.609 139.268 137.753 134.366 136.303 129.578L130.862 128.492C132.949 134.404 134.237 140.495 134.702 146.651L140.913 147.592C145.014 142.926 148.548 137.922 151.46 132.658L146.06 131.554Z" fill="white" stroke="white" stroke-width="0.5" stroke-miterlimit="388.69"/>
<path d="M167.772 138.465C168.076 137.73 168.36 137.011 168.623 136.284L153.74 133.136C153.488 138.552 152.216 143.899 149.971 148.977C154.699 149.702 159.427 150.409 164.155 151.099C164.567 150.34 164.952 149.579 165.31 148.815L156.101 147.335C156.675 145.915 157.164 144.49 157.57 143.058L165.209 144.427C165.452 143.657 165.675 142.896 165.878 142.126L158.178 140.672C158.471 139.32 158.704 137.978 158.856 136.635C161.805 137.233 164.794 137.849 167.772 138.465Z" fill="white" stroke="white" stroke-width="0.5" stroke-miterlimit="388.69"/>
<path d="M174.216 150.004C176.206 146.305 177.511 142.37 178.086 138.337L172.788 137.182C172.218 142.212 170.574 147.112 167.934 151.646C172.467 152.302 176.955 152.932 181.399 153.537C182.099 152.835 182.767 152.134 183.426 151.424C180.356 150.97 177.256 150.534 174.216 150.004Z" fill="white" stroke="white" stroke-width="0.5" stroke-miterlimit="388.69"/>
</svg>
